# xmcd
#
# Track frame offsets: 
#        183
#        21158
#        45363
#        59140
#        78423
#        92795
#        104520
#        121943
#        139395
#        157613
#        172790
#        188128
#        211260
#        250783
#
# Disc length: 3562 seconds
#
# Revision: 3
# Processed by: cddbd v1.5.2PL0 Copyright (c) Steve Scherf et al.
# Submitted via: ExactAudioCopy v1.1
#
DISCID=b30de80e
DTITLE=Stephen Barry Band - Blues Under A Full Moon
DYEAR=1999
DGENRE=Blues
TTITLE0=My Mind is Ramblin
TTITLE1=Social Suicide
TTITLE2=Up the Line
TTITLE3=Cool Drink of Water Blues
TTITLE4=Everybody's Got Somebody (billy's Song)
TTITLE5=Aluminum Room
TTITLE6=Juke
TTITLE7=Lovin Cup'
TTITLE8=If You Live
TTITLE9=Worried Mind
TTITLE10=Steady Rollin Man
TTITLE11=Shake Your Hips
TTITLE12=Acetone and Toluene
TTITLE13=Ball and Chain
EXTD=
EXTT0=
EXTT1=
EXTT2=
EXTT3=
EXTT4=
EXTT5=
EXTT6=
EXTT7=
EXTT8=
EXTT9=
EXTT10=
EXTT11=
EXTT12=
EXTT13=
PLAYORDER=
